<?xml version="1.0" encoding="UTF-8"?>
<svg width="32" height="32" viewBox="0 0 32 32" fill="none" xmlns="http://www.w3.org/2000/svg">
  <!-- Background -->
  <rect width="32" height="32" rx="3" fill="#1f2937" stroke="#374151" stroke-width="1"/>
  
  <!-- Header line -->
  <rect x="4" y="5" width="24" height="2" fill="#60a5fa"/>
  
  <!-- Name lines -->
  <rect x="4" y="9" width="16" height="1.5" fill="#f9fafb"/>
  <rect x="4" y="11.5" width="12" height="1" fill="#d1d5db"/>
  
  <!-- Content lines -->
  <rect x="4" y="15" width="8" height="1" fill="#9ca3af"/>
  <rect x="14" y="15" width="14" height="1" fill="#9ca3af"/>
  
  <rect x="4" y="17.5" width="12" height="1" fill="#9ca3af"/>
  <rect x="18" y="17.5" width="10" height="1" fill="#9ca3af"/>
  
  <rect x="4" y="20" width="10" height="1" fill="#9ca3af"/>
  <rect x="16" y="20" width="12" height="1" fill="#9ca3af"/>
  
  <rect x="4" y="22.5" width="14" height="1" fill="#9ca3af"/>
  <rect x="20" y="22.5" width="8" height="1" fill="#9ca3af"/>
  
  <!-- Section divider -->
  <rect x="4" y="25" width="24" height="0.5" fill="#374151"/>
  
  <!-- Bottom content -->
  <rect x="4" y="27" width="6" height="1" fill="#9ca3af"/>
  <rect x="12" y="27" width="8" height="1" fill="#9ca3af"/>
  <rect x="22" y="27" width="6" height="1" fill="#9ca3af"/>
</svg>
